HIERARCHY
ROOT Hips
{
	OFFSET	0.00	0.00	0.00
	CHANNELS 6 Xposition Yposition Zposition Zrotation Xrotation Yrotation
	JOINT LeftUpLeg
	{
		OFFSET	 0.126116	-0.014019	-0.065224
		CHANNELS 3 Zrotation Xrotation Yrotation
		JOINT LeftLeg
		{
			OFFSET	 0.000000	 0.000000	 0.569914
			CHANNELS 3 Zrotation Xrotation Yrotation
			JOINT LeftFoot
			{
				OFFSET	 0.000000	 0.000000	 0.544423
				CHANNELS 3 Zrotation Xrotation Yrotation
				JOINT LeftToeBase
				{
					OFFSET	 0.000000	 0.000000	 0.207117
					CHANNELS 3 Zrotation Xrotation Yrotation
					End Site
					{
						OFFSET	 0.000000	 0.000000	 0.207117
					}
				}
			}
		}
	}
	JOINT RightUpLeg
	{
		OFFSET	-0.124023	-0.008373	-0.065224
		CHANNELS 3 Zrotation Xrotation Yrotation
		JOINT RightLeg
		{
			OFFSET	 0.000000	 0.000000	 0.570047
			CHANNELS 3 Zrotation Xrotation Yrotation
			JOINT RightFoot
			{
				OFFSET	 0.000000	 0.000000	 0.544354
				CHANNELS 3 Zrotation Xrotation Yrotation
				JOINT RightToeBase
				{
					OFFSET	 0.000000	 0.000000	 0.207540
					CHANNELS 3 Zrotation Xrotation Yrotation
					End Site
					{
						OFFSET	 0.000000	 0.000000	 0.207540
					}
				}
			}
		}
	}
	JOINT Spine
	{
		OFFSET	 0.000184	-0.007763	 0.117403
		CHANNELS 3 Zrotation Xrotation Yrotation
		JOINT Spine1
		{
			OFFSET	 0.000000	 0.000000	 0.137269
			CHANNELS 3 Zrotation Xrotation Yrotation
			JOINT Spine2
			{
				OFFSET	 0.000000	 0.000000	 0.156879
				CHANNELS 3 Zrotation Xrotation Yrotation
				JOINT LeftShoulder
				{
					OFFSET	 0.080501	-0.002496	 0.160144
					CHANNELS 3 Zrotation Xrotation Yrotation
					JOINT LeftArm
					{
						OFFSET	 0.000000	 0.000000	 0.164363
						CHANNELS 3 Zrotation Xrotation Yrotation
						JOINT LeftForeArm
						{
							OFFSET	 0.000000	 0.000000	 0.364576
							CHANNELS 3 Zrotation Xrotation Yrotation
							JOINT LeftHand
							{
								OFFSET	 0.000000	 0.000000	 0.360812
								CHANNELS 3 Zrotation Xrotation Yrotation
								JOINT LeftHandIndex1
								{
									OFFSET	 0.000000	 0.000000	 0.086006
									CHANNELS 3 Zrotation Xrotation Yrotation
									JOINT LeftHandIndex2
									{
										OFFSET	 0.000000	 0.000000	 0.047236
										CHANNELS 3 Zrotation Xrotation Yrotation
										JOINT LeftHandIndex3
										{
											OFFSET	-0.004284	-0.000551	 0.038166
											CHANNELS 3 Zrotation Xrotation Yrotation
											End Site
											{
												OFFSET	-0.004284	-0.000551	 0.038166
											}
										}
									}
								}
							}
						}
					}
				}
				JOINT Neck
				{
					OFFSET	 0.000000	 0.000000	 0.176489
					CHANNELS 3 Zrotation Xrotation Yrotation
					JOINT Head
					{
						OFFSET	 0.000000	-0.001747	 0.077940
						CHANNELS 3 Zrotation Xrotation Yrotation
						End Site
						{
							OFFSET	 0.000000	-0.001747	 0.077940
						}
					}
				}
				JOINT RightShoulder
				{
					OFFSET	-0.080363	 0.000306	 0.159706
					CHANNELS 3 Zrotation Xrotation Yrotation
					JOINT RightArm
					{
						OFFSET	 0.000000	 0.000000	 0.164196
						CHANNELS 3 Zrotation Xrotation Yrotation
						JOINT RightForeArm
						{
							OFFSET	 0.000000	 0.000000	 0.365611
							CHANNELS 3 Zrotation Xrotation Yrotation
							JOINT RightHand
							{
								OFFSET	 0.000000	 0.000000	 0.360648
								CHANNELS 3 Zrotation Xrotation Yrotation
								JOINT RightHandIndex1
								{
									OFFSET	 0.000000	 0.000000	 0.069977
									CHANNELS 3 Zrotation Xrotation Yrotation
									JOINT RightHandIndex2
									{
										OFFSET	 0.000000	 0.000000	 0.052305
										CHANNELS 3 Zrotation Xrotation Yrotation
										JOINT RightHandIndex3
										{
											OFFSET	 0.009002	-0.000782	 0.042196
											CHANNELS 3 Zrotation Xrotation Yrotation
											End Site
											{
												OFFSET	 0.009002	-0.000782	 0.042196
											}
										}
									}
								}
							}
						}
					}
				}
			}
		}
	}
}
MOTION
Frames:    5
Frame Time: 0.03333334
 6.356683	 0.067913	 1.149373	-179.316800	 4.089828	-1.038865	 9.475675	 18.116300	-176.289000	-5.769789	-11.624740	 1.534255	-10.986530	 89.030250	 14.430370	-2.278326	 41.643830	-0.320607	 4.464189	-45.728540	-179.806500	-0.263548	-42.412370	 3.593790	-176.410000	 84.397930	-178.897400	 2.391519	 26.685990	-0.036430	 4.866207	 2.764071	 2.625064	 8.967401	-4.765204	 1.803678	 11.421480	-8.759704	 0.890748	-91.776180	 78.527400	 180.000000	 42.409990	 62.231400	-57.711400	-6.427216	-4.588080	-26.750140	 4.044208	-12.625640	-5.492947	-3.812334	 37.924440	-2.927599	-2.450526	 36.184240	 0.754587	-1.378229	 35.397820	-2.634230	-0.259812	 5.004365	-2.307704	 3.267299	-23.774300	-0.734764	 89.782090	 78.203890	-180.000000	-30.439090	 73.156960	 33.989350	 3.867792	-6.489789	 19.712440	-12.597400	-13.691670	 9.804790	 6.437017	 35.671460	-0.771858	 2.830251	 35.756010	-7.813440	-2.350882	 35.473990	 5.254307
 6.356419	 0.097914	 1.149607	-178.730900	 4.215063	-1.239470	 9.097649	 19.304260	-176.447800	-5.352942	-11.624100	 1.539195	-3.424528	 88.586260	 6.895516	-2.254420	 43.417930	-0.371382	 4.835711	-45.424780	-179.209100	 0.179508	-42.077210	 4.016323	-175.612200	 85.532650	-179.230700	 2.377575	 29.871450	 0.032403	 4.719306	 2.544382	 2.551398	 8.808245	-4.954424	 1.715627	 11.339690	-8.842916	 0.831979	-91.776180	 78.527400	 180.000000	 43.435630	 62.692960	-58.677960	-6.225570	-4.572837	-25.362830	 4.406856	-12.663950	-5.489702	-3.812334	 37.924440	-2.927599	-2.450526	 36.184240	 0.754587	-1.378229	 35.397820	-2.634230	-0.382051	 5.190595	-2.294789	 3.178422	-24.004370	-0.697171	 89.782120	 78.203870	 180.000000	-29.662160	 73.495080	 32.791550	 3.856389	-6.411119	 19.192220	-12.790040	-13.724450	 9.799734	 6.437017	 35.671460	-0.771858	 2.830251	 35.756010	-7.813440	-2.350882	 35.473990	 5.254307
 6.357409	 0.168747	 1.146457	-177.716200	 4.514775	-1.485592	 8.526559	 21.973100	-177.284200	-4.267342	-11.617630	 1.587994	 4.002796	 86.042500	-0.202954	-2.169501	 48.441740	-0.530516	 5.293839	-44.064080	-178.457200	 2.051000	-43.595080	 5.712811	-174.401200	 88.543300	-179.135100	 2.381015	 29.180070	 0.017207	 4.373359	 1.918385	 2.140268	 8.504109	-5.435681	 1.499513	 11.266450	-8.990648	 0.709072	-91.776180	 78.527400	 180.000000	 45.087990	 64.525220	-59.516950	-6.361412	-4.478556	-22.294570	 5.215763	-12.794410	-5.478399	-3.812334	 37.924440	-2.927599	-2.450526	 36.184240	 0.754587	-1.378229	 35.397820	-2.634230	-0.637001	 4.978482	-2.177018	 3.003198	-23.728000	-0.476634	 89.782120	 78.203870	 180.000000	-27.599440	 74.322200	 29.906730	 4.052755	-6.283762	 18.296090	-13.165540	-13.829700	 9.788898	 6.437017	 35.671460	-0.771858	 2.830251	 35.756010	-7.813440	-2.350882	 35.473990	 5.254307
 6.361277	 0.278359	 1.151675	-177.181300	 4.335143	-1.318871	 8.719706	 25.667690	-179.205400	-3.122814	-11.601370	 1.703746	 4.695888	 76.071410	 0.286251	-2.059050	 53.188700	-0.708862	 3.682584	-41.573860	-179.760100	 6.480896	-47.161140	 8.677876	 4.862093	 86.284160	 3.261187	 2.373066	 30.714650	 0.051143	 4.382315	 0.724541	 0.961128	 8.620870	-6.021732	 1.176097	 11.193180	-9.200857	 0.921152	-91.776180	 78.527400	 180.000000	 44.407360	 68.685670	-55.951120	-8.120900	-4.222306	-18.878810	 5.975719	-13.057400	-5.460784	-3.812334	 37.924440	-2.927599	-2.450526	 36.184240	 0.754587	-1.378229	 35.397820	-2.634230	-0.959491	 4.742665	-1.899328	 2.817779	-23.113630	 0.077502	 89.782140	 78.203830	 180.000000	-24.518830	 75.236910	 25.672520	 4.454709	-6.146360	 17.531290	-13.409090	-14.040930	 9.787360	 6.437017	 35.671460	-0.771858	 2.830251	 35.756010	-7.813440	-2.350882	 35.473990	 5.254307
 6.363000	 0.311911	 1.154872	-177.124200	 4.303689	-1.364290	 8.938371	 26.599970	-179.650400	-3.313341	-11.605400	 1.675431	 4.079695	 71.393420	 1.133005	-2.070832	 52.747840	-0.690858	 3.518286	-40.560350	 179.939900	 6.149643	-47.997430	 8.500130	 5.083845	 85.736800	 2.599050	 2.377177	 29.948580	 0.034111	 4.551483	 0.188024	 0.895017	 8.754507	-6.126764	 1.123520	 11.092810	-9.147530	 1.034831	-91.776180	 78.527400	-180.000000	 43.353890	 69.925040	-53.718630	-8.917718	-4.107392	-18.313810	 5.904095	-13.142530	-5.459709	-3.812334	 37.924440	-2.927599	-2.450526	 36.184240	 0.754587	-1.378229	 35.397820	-2.634230	-0.973819	 4.706113	-1.872059	 2.801188	-22.842520	 0.179861	 89.782100	 78.203850	-180.000000	-24.208610	 75.390790	 25.211130	 4.480755	-6.131896	 17.412640	-13.462820	-14.118120	 9.787166	 6.437017	 35.671460	-0.771858	 2.830251	 35.756010	-7.813440	-2.350882	 35.473990	 5.254307
